<svg width="289" height="66" viewBox="0 0 289 66" fill="none" xmlns="http://www.w3.org/2000/svg">
<g filter="url(#filter0_diiii_2854_449421)">
<rect x="5" y="0.00109863" width="85.5226" height="56.9992" rx="18" fill="url(#paint0_linear_2854_449421)"/>
<path d="M60.1342 46.5893C60.1342 46.1326 59.764 45.7623 59.3072 45.7623H22.7235C22.2667 45.7623 21.8964 45.392 21.8964 44.9353L21.8968 12.5468C21.8968 12.09 22.2671 11.7198 22.7238 11.7198H71.5169C71.9736 11.7198 72.3439 12.09 72.3439 12.5468V33.0401C72.3439 33.4969 72.7141 33.8671 73.1709 33.8671H73.4582C73.915 33.8671 74.2852 33.4969 74.2852 33.0401V11.7198C74.2852 11.2143 74.0807 10.7295 73.7166 10.3721C73.3525 10.0147 72.8588 9.8139 72.3439 9.8139H21.8968C21.3819 9.8139 20.8881 10.0147 20.5241 10.3721C20.16 10.7295 19.9555 11.2143 19.9555 11.7198L19.9551 45.7623C19.9551 46.2678 20.1596 46.7525 20.5237 47.11C20.8878 47.4674 21.3816 47.6682 21.8964 47.6682H59.3072C59.764 47.6682 60.1342 47.2979 60.1342 46.8412V46.5893Z" fill="#478449"/>
<path d="M65.8229 43.701C65.5037 44.004 65.0033 44.004 64.6841 43.701L62.5072 41.6346C62.1881 41.3317 61.6876 41.3317 61.3685 41.6346L60.7647 42.2078C60.4212 42.5339 60.4212 43.0813 60.7647 43.4074L64.6841 47.1279C65.0033 47.4309 65.5037 47.4309 65.8229 47.1279L74.863 38.5465C75.2065 38.2204 75.2065 37.673 74.863 37.3469L74.2592 36.7738C73.94 36.4708 73.4396 36.4708 73.1204 36.7738L65.8229 43.701Z" fill="#478449"/>
<path d="M31.2756 17.9H33.4336L35.8256 21.748L38.2176 17.9H40.3756V27H38.3866V21.059L35.8256 24.946H35.7736L33.2386 21.098V27H31.2756V17.9ZM42.6527 17.9H44.6547V27H42.6527V17.9ZM51.3359 14.728C51.1366 14.728 50.9459 14.7063 50.7639 14.663C50.5906 14.611 50.4302 14.5547 50.2829 14.494C50.1529 14.442 50.0532 14.4073 49.9839 14.39C49.9146 14.364 49.8366 14.351 49.7499 14.351C49.5679 14.351 49.4292 14.39 49.3339 14.468C49.2472 14.546 49.1649 14.676 49.0869 14.858L48.0339 14.455C48.1639 13.9783 48.3329 13.623 48.5409 13.389C48.7489 13.1463 49.0566 13.025 49.4639 13.025C49.6632 13.025 49.8496 13.051 50.0229 13.103C50.2049 13.155 50.3696 13.2113 50.5169 13.272C50.6469 13.324 50.7466 13.363 50.8159 13.389C50.8852 13.4063 50.9632 13.415 51.0499 13.415C51.2319 13.415 51.3662 13.376 51.4529 13.298C51.5482 13.22 51.6349 13.09 51.7129 12.908L52.7659 13.311C52.6359 13.7877 52.4669 14.143 52.2589 14.377C52.0509 14.611 51.7432 14.728 51.3359 14.728ZM49.4379 15.144H51.3099L52.9089 17.055H51.3879L50.3609 16.249L49.3339 17.055H47.8389L49.4379 15.144ZM46.9289 17.9H53.7929V19.681H48.9179V21.527H53.2079V23.308H48.9179V25.219H53.8579V27H46.9289V17.9ZM55.6379 17.9H57.4839L61.7479 23.503V17.9H63.7239V27H62.0209L57.6139 21.215V27H55.6379V17.9ZM37.1281 30.9H40.8461C41.3921 30.9 41.8775 30.978 42.3021 31.134C42.7355 31.2813 43.0995 31.4937 43.3941 31.771C43.6975 32.0483 43.9271 32.382 44.0831 32.772C44.2478 33.1533 44.3301 33.578 44.3301 34.046V34.072C44.3301 34.6007 44.2348 35.0643 44.0441 35.463C43.8535 35.8617 43.5891 36.1953 43.2511 36.464C42.9218 36.7327 42.5318 36.9363 42.0811 37.075C41.6391 37.205 41.1625 37.27 40.6511 37.27H39.1301V40H37.1281V30.9ZM40.7161 35.489C41.2188 35.489 41.6088 35.359 41.8861 35.099C42.1635 34.8303 42.3021 34.501 42.3021 34.111V34.085C42.3021 33.6343 42.1548 33.292 41.8601 33.058C41.5741 32.824 41.1798 32.707 40.6771 32.707H39.1301V35.489H40.7161ZM45.8117 30.9H47.8137V34.501H51.5057V30.9H53.5077V40H51.5057V36.347H47.8137V40H45.8117V30.9ZM55.7797 30.9H57.7817V40H55.7797V30.9ZM57.4697 27.754L59.1727 28.495L57.4827 30.055H56.0267L57.4697 27.754Z" fill="#478449"/>
<rect x="5.701" y="0.702104" width="84.1206" height="55.5972" rx="17.299" stroke="url(#paint1_linear_2854_449421)" stroke-width="1.40201"/>
</g>
<g filter="url(#filter1_diiii_2854_449421)">
<rect x="198.477" width="85.5226" height="56.9992" rx="18" fill="url(#paint2_linear_2854_449421)"/>
<path d="M208.412 45.9217C208.221 45.7381 208.122 45.4585 208.116 45.1769L208.099 42.3128C208.093 42.0312 208.228 41.7933 208.41 41.6014C208.592 41.4095 208.87 41.3094 209.197 41.349C209.29 41.347 209.431 41.3908 209.524 41.3887C210.828 41.3595 211.923 40.3019 211.894 38.9877C211.913 37.7194 210.77 36.6179 209.511 36.5991C209.418 36.6012 209.325 36.6033 209.186 36.6533C208.907 36.6596 208.625 36.572 208.435 36.3884C208.244 36.2048 208.1 35.9732 208.139 35.6437L208.153 32.0744C208.147 31.7928 208.282 31.555 208.464 31.3631C208.646 31.1712 208.924 31.071 209.251 31.1107C209.344 31.1086 209.485 31.1524 209.578 31.1503C210.882 31.1211 211.977 30.0635 211.948 28.7493C211.967 27.481 210.824 26.3795 209.565 26.3607C209.472 26.3628 209.334 26.4129 209.24 26.415C208.961 26.4212 208.679 26.3336 208.489 26.15C208.298 25.9664 208.154 25.7349 208.193 25.4053L208.207 21.8361C208.201 21.5544 208.336 21.3166 208.518 21.1247C208.7 20.9328 209.025 20.8786 209.305 20.8723C209.398 20.8702 209.539 20.9141 209.632 20.912C210.936 20.8828 212.031 19.8252 212.002 18.511C212.021 17.2427 210.878 16.1412 209.62 16.1224C209.526 16.1245 209.388 16.1745 209.294 16.1766C209.015 16.1829 208.733 16.0952 208.543 15.9117C208.353 15.7281 208.208 15.4965 208.247 15.1669L208.268 11.8793C208.262 11.5977 208.396 11.3599 208.578 11.168C208.76 10.9761 209.038 10.8759 209.272 10.9177L273.49 10.8899C273.77 10.8836 274.006 11.0192 274.196 11.2028C274.387 11.3864 274.486 11.6659 274.445 11.9016L274.424 15.1893C274.43 15.4709 274.298 15.8026 274.068 15.9486C273.838 16.0946 273.561 16.1947 273.234 16.1551C271.789 16.1404 270.789 17.2898 270.77 18.5582C270.751 19.8265 271.894 20.9279 273.153 20.9467C273.478 20.8925 273.759 20.9801 273.995 21.1157C274.186 21.2993 274.378 21.5768 274.385 21.8584L274.368 25.3337C274.374 25.6154 274.242 25.947 274.012 26.0931C273.782 26.2391 273.505 26.3392 273.178 26.2996C271.733 26.2849 270.733 27.4343 270.714 28.7026C270.695 29.971 271.838 31.0724 273.097 31.0912C273.422 31.037 273.703 31.1246 273.939 31.2602C274.175 31.3958 274.322 31.7212 274.328 32.0029L274.359 35.5241C274.366 35.8057 274.233 36.1374 274.003 36.2834C273.774 36.4295 273.496 36.5296 273.169 36.4899C271.817 36.4732 270.722 37.5308 270.705 38.893C270.687 40.1613 271.829 41.2628 273.088 41.2816C273.413 41.2274 273.695 41.315 273.931 41.4506C274.121 41.6342 274.314 41.9116 274.32 42.1932L274.336 45.0574C274.343 45.339 274.208 45.5768 274.026 45.7687C273.844 45.9606 273.566 46.0608 273.332 46.019L209.114 46.0468C208.791 46.1949 208.602 46.1052 208.412 45.9217ZM210.079 43.3016L210.099 44.2403L272.314 44.2104L272.293 43.2717C270.281 42.8941 268.656 41.052 268.703 38.9848C268.749 36.8236 270.294 35.0046 272.337 34.6771L272.347 33.0333C270.335 32.6557 268.71 30.8137 268.758 28.7464C268.756 26.5394 270.348 24.7662 272.391 24.4388L272.401 22.795C270.437 22.4632 268.814 20.7151 268.812 18.508C268.81 16.301 270.402 14.5279 272.445 14.2004L272.462 12.8382L210.061 12.8723L210.089 14.1865C212.193 14.4682 213.866 16.3561 213.913 18.5152C213.917 20.8161 212.232 22.5913 210.093 22.827L210.081 24.3769C212.137 24.6127 213.905 26.5924 213.905 28.7056C213.909 31.0065 212.224 32.7817 210.085 33.0174L210.072 34.5673C212.176 34.849 213.849 36.7369 213.896 38.8959C213.855 41.2448 212.124 43.068 210.079 43.3016Z" fill="#478449"/>
<path d="M224.833 37.9755H226.689V27.2493H225.381L222.521 28.1622L222.916 29.6837L224.833 29.1511V37.9755ZM233.65 38.1581C236.449 38.1581 238.305 35.6934 238.305 32.6505V32.62C238.305 29.5772 236.464 27.1428 233.68 27.1428C230.881 27.1428 229.025 29.6076 229.025 32.6505V32.6809C229.025 35.7238 230.85 38.1581 233.65 38.1581ZM233.68 36.4693C232.022 36.4693 230.957 34.7501 230.957 32.6505V32.62C230.957 30.5052 232.007 28.8316 233.65 28.8316C235.293 28.8316 236.373 30.5509 236.373 32.6505V32.6809C236.373 34.7957 235.323 36.4693 233.68 36.4693ZM244.659 38.1581C247.459 38.1581 249.315 35.6934 249.315 32.6505V32.62C249.315 29.5772 247.474 27.1428 244.69 27.1428C241.89 27.1428 240.034 29.6076 240.034 32.6505V32.6809C240.034 35.7238 241.86 38.1581 244.659 38.1581ZM244.69 36.4693C243.031 36.4693 241.966 34.7501 241.966 32.6505V32.62C241.966 30.5052 243.016 28.8316 244.659 28.8316C246.303 28.8316 247.383 30.5509 247.383 32.6505V32.6809C247.383 34.7957 246.333 36.4693 244.69 36.4693ZM251.546 37.9755H253.417V34.887L255.076 33.183L258.712 37.9755H260.979L256.354 31.905L260.781 27.3254H258.484L253.417 32.6809V27.3254H251.546V37.9755Z" fill="#478449"/>
<path d="M223.906 16.9982H225.324L226.851 21.1115L228.378 16.9982H229.763L227.402 22.8803H226.267L223.906 16.9982ZM232.138 22.9387C231.793 22.9387 231.474 22.8803 231.179 22.7635C230.884 22.6412 230.628 22.4771 230.411 22.2713C230.2 22.0599 230.033 21.8152 229.911 21.5371C229.788 21.2534 229.727 20.9502 229.727 20.6276V20.6109C229.727 20.2883 229.788 19.988 229.911 19.7098C230.033 19.4262 230.203 19.1787 230.42 18.9673C230.637 18.7559 230.892 18.5891 231.187 18.4667C231.482 18.3443 231.805 18.2831 232.155 18.2831C232.5 18.2831 232.82 18.3443 233.115 18.4667C233.409 18.5835 233.662 18.7476 233.874 18.9589C234.091 19.1647 234.26 19.4095 234.383 19.6932C234.505 19.9713 234.566 20.2716 234.566 20.5942V20.6109C234.566 20.9335 234.505 21.2367 234.383 21.5204C234.26 21.7985 234.091 22.0432 233.874 22.2546C233.657 22.466 233.401 22.6328 233.106 22.7552C232.811 22.8776 232.489 22.9387 232.138 22.9387ZM232.155 21.8458C232.339 21.8458 232.5 21.8152 232.639 21.754C232.784 21.6872 232.906 21.5982 233.006 21.487C233.106 21.3757 233.181 21.2478 233.231 21.1032C233.287 20.953 233.315 20.7945 233.315 20.6276V20.6109C233.315 20.4441 233.287 20.2883 233.231 20.1437C233.176 19.9935 233.095 19.8628 232.989 19.7516C232.884 19.6348 232.759 19.543 232.614 19.4762C232.469 19.4095 232.311 19.3761 232.138 19.3761C231.955 19.3761 231.791 19.4095 231.646 19.4762C231.507 19.5374 231.387 19.6236 231.287 19.7349C231.187 19.8461 231.109 19.9768 231.054 20.127C231.004 20.2716 230.979 20.4274 230.979 20.5942V20.6109C230.979 20.7778 231.006 20.9363 231.062 21.0865C231.118 21.2311 231.198 21.3618 231.304 21.4786C231.41 21.5899 231.532 21.6789 231.671 21.7456C231.816 21.8124 231.977 21.8458 232.155 21.8458ZM236.97 22.9221C236.486 22.9221 236.11 22.7747 235.843 22.4799C235.582 22.1851 235.451 21.779 235.451 21.2617V18.3666H236.719V20.8612C236.719 21.1616 236.786 21.3897 236.92 21.5454C237.053 21.6956 237.242 21.7707 237.487 21.7707C237.732 21.7707 237.924 21.6956 238.063 21.5454C238.207 21.3897 238.28 21.1616 238.28 20.8612V18.3666H239.548V22.8386H238.28V22.2045C238.207 22.2991 238.127 22.3909 238.038 22.4799C237.954 22.5633 237.86 22.6384 237.754 22.7051C237.648 22.7719 237.531 22.8247 237.404 22.8637C237.276 22.9026 237.131 22.9221 236.97 22.9221ZM242.794 22.9387C242.46 22.9387 242.149 22.8776 241.859 22.7552C241.576 22.6328 241.331 22.4687 241.125 22.2629C240.919 22.0516 240.758 21.8068 240.641 21.5287C240.524 21.245 240.466 20.9447 240.466 20.6276V20.6109C240.466 20.2939 240.524 19.9935 240.641 19.7098C240.758 19.4262 240.919 19.1787 241.125 18.9673C241.331 18.7559 241.576 18.5891 241.859 18.4667C242.149 18.3443 242.466 18.2831 242.81 18.2831C243.233 18.2831 243.584 18.3499 243.862 18.4834C244.14 18.6169 244.385 18.8004 244.596 19.034L243.82 19.8684C243.675 19.7182 243.525 19.5986 243.369 19.5096C243.219 19.4206 243.03 19.3761 242.802 19.3761C242.641 19.3761 242.493 19.4095 242.36 19.4762C242.232 19.5374 242.118 19.6236 242.018 19.7349C241.923 19.8461 241.848 19.9768 241.793 20.127C241.742 20.2716 241.717 20.4274 241.717 20.5942V20.6109C241.717 20.7834 241.742 20.9447 241.793 21.0949C241.848 21.245 241.926 21.3757 242.026 21.487C242.126 21.5982 242.246 21.6872 242.385 21.754C242.524 21.8152 242.68 21.8458 242.852 21.8458C243.064 21.8458 243.247 21.804 243.403 21.7206C243.564 21.6316 243.723 21.5148 243.878 21.3702L244.621 22.1211C244.404 22.3603 244.157 22.5577 243.878 22.7135C243.6 22.8637 243.239 22.9387 242.794 22.9387ZM245.449 16.7479H246.718V19.0007C246.79 18.9061 246.868 18.8171 246.951 18.7337C247.04 18.6447 247.138 18.5668 247.243 18.5001C247.349 18.4333 247.466 18.3805 247.594 18.3415C247.722 18.3026 247.866 18.2831 248.027 18.2831C248.511 18.2831 248.884 18.4305 249.145 18.7253C249.412 19.0201 249.546 19.4262 249.546 19.9435V22.8386H248.278V20.3439C248.278 20.0436 248.211 19.8183 248.078 19.6681C247.944 19.5124 247.755 19.4345 247.51 19.4345C247.265 19.4345 247.071 19.5124 246.926 19.6681C246.787 19.8183 246.718 20.0436 246.718 20.3439V22.8386H245.449V16.7479ZM252.767 22.9387C252.433 22.9387 252.122 22.8831 251.832 22.7719C251.549 22.6606 251.301 22.5021 251.09 22.2963C250.884 22.0905 250.723 21.8485 250.606 21.5704C250.489 21.2868 250.431 20.9725 250.431 20.6276V20.6109C250.431 20.2939 250.484 19.9935 250.589 19.7098C250.701 19.4262 250.853 19.1787 251.048 18.9673C251.243 18.7559 251.474 18.5891 251.741 18.4667C252.013 18.3443 252.314 18.2831 252.642 18.2831C253.014 18.2831 253.337 18.3499 253.61 18.4834C253.882 18.6169 254.107 18.7976 254.285 19.0257C254.469 19.2482 254.602 19.5068 254.686 19.8016C254.775 20.0909 254.819 20.394 254.819 20.7111C254.819 20.7611 254.817 20.814 254.811 20.8696C254.811 20.9252 254.808 20.9836 254.803 21.0448H251.691C251.752 21.334 251.877 21.5537 252.066 21.7039C252.261 21.8485 252.5 21.9208 252.784 21.9208C252.995 21.9208 253.184 21.8847 253.351 21.8124C253.518 21.7401 253.69 21.6233 253.868 21.462L254.594 22.1044C254.383 22.3658 254.127 22.5716 253.827 22.7218C253.526 22.8664 253.173 22.9387 252.767 22.9387ZM253.585 20.2522C253.546 19.9685 253.446 19.7404 253.284 19.568C253.123 19.39 252.909 19.301 252.642 19.301C252.375 19.301 252.158 19.3872 251.991 19.5597C251.83 19.7321 251.724 19.9629 251.674 20.2522H253.585ZM255.765 18.3666H257.033V19.2676C257.161 18.9617 257.336 18.717 257.558 18.5334C257.781 18.3499 258.081 18.2664 258.459 18.2831V19.6097H258.393C257.97 19.6097 257.636 19.7377 257.392 19.9935C257.152 20.2494 257.033 20.6471 257.033 21.1866V22.8386H255.765V18.3666Z" fill="#478449"/>
<rect x="199.178" y="0.701005" width="84.1206" height="55.5972" rx="17.299" stroke="url(#paint3_linear_2854_449421)" stroke-width="1.40201"/>
</g>
<g filter="url(#filter2_diiii_2854_449421)">
<rect x="101.738" width="85.5226" height="56.9992" rx="18" fill="url(#paint4_linear_2854_449421)"/>
<path d="M137.787 26.192C136.966 26.192 136.203 26.0427 135.499 25.744C134.795 25.4453 134.187 25.04 133.675 24.528C133.163 24.0053 132.763 23.392 132.475 22.688C132.187 21.984 132.043 21.232 132.043 20.432V20.4C132.043 19.6 132.187 18.8533 132.475 18.16C132.763 17.456 133.163 16.8427 133.675 16.32C134.187 15.7867 134.801 15.3707 135.515 15.072C136.23 14.7627 137.019 14.608 137.883 14.608C138.406 14.608 138.881 14.6507 139.307 14.736C139.745 14.8213 140.139 14.9387 140.491 15.088C140.843 15.2373 141.169 15.4187 141.467 15.632C141.766 15.8453 142.043 16.08 142.299 16.336L140.731 18.144C140.294 17.7493 139.846 17.44 139.387 17.216C138.939 16.992 138.433 16.88 137.867 16.88C137.398 16.88 136.961 16.9707 136.555 17.152C136.161 17.3333 135.819 17.584 135.531 17.904C135.243 18.224 135.019 18.5973 134.859 19.024C134.699 19.44 134.619 19.888 134.619 20.368V20.4C134.619 20.88 134.699 21.3333 134.859 21.76C135.019 22.1867 135.238 22.56 135.515 22.88C135.803 23.2 136.145 23.456 136.539 23.648C136.945 23.8293 137.387 23.92 137.867 23.92C138.507 23.92 139.046 23.8027 139.483 23.568C139.931 23.3333 140.374 23.0133 140.811 22.608L142.379 24.192C142.091 24.5013 141.793 24.7787 141.483 25.024C141.174 25.2693 140.833 25.4827 140.459 25.664C140.097 25.8347 139.697 25.9627 139.259 26.048C138.822 26.144 138.331 26.192 137.787 26.192ZM144.096 14.32H146.528V18.64C146.666 18.4587 146.816 18.288 146.976 18.128C147.146 17.9573 147.333 17.808 147.536 17.68C147.738 17.552 147.962 17.4507 148.208 17.376C148.453 17.3013 148.73 17.264 149.04 17.264C149.968 17.264 150.682 17.5467 151.184 18.112C151.696 18.6773 151.952 19.456 151.952 20.448V26H149.52V21.216C149.52 20.64 149.392 20.208 149.136 19.92C148.88 19.6213 148.517 19.472 148.048 19.472C147.578 19.472 147.205 19.6213 146.928 19.92C146.661 20.208 146.528 20.64 146.528 21.216V26H144.096V14.32ZM154.673 15.104C155.355 15.0827 155.697 14.9333 155.697 14.656C155.697 14.592 155.665 14.5333 155.601 14.48C155.537 14.4267 155.446 14.4 155.329 14.4C155.211 14.4 155.083 14.4107 154.945 14.432C154.806 14.4427 154.619 14.5493 154.385 14.752L153.393 13.92C153.681 13.632 153.995 13.424 154.337 13.296C154.689 13.168 155.067 13.1093 155.473 13.12C156.027 13.1307 156.481 13.2747 156.833 13.552C157.195 13.8187 157.371 14.1813 157.361 14.64C157.35 15.056 157.217 15.3813 156.961 15.616C156.715 15.84 156.422 16 156.081 16.096L156.049 16.48H154.769L154.673 15.104ZM154.177 17.424H156.609V26H154.177V17.424ZM123.255 42.192C122.348 42.192 121.559 42.0427 120.887 41.744C120.215 41.4453 119.607 41.0347 119.063 40.512L120.551 38.736C120.978 39.12 121.404 39.4187 121.831 39.632C122.258 39.8453 122.722 39.952 123.223 39.952C123.799 39.952 124.252 39.8187 124.583 39.552C124.924 39.2853 125.095 38.9013 125.095 38.4V38.368C125.095 37.888 124.908 37.5147 124.535 37.248C124.172 36.9813 123.698 36.848 123.111 36.848C122.759 36.848 122.423 36.8907 122.103 36.976C121.794 37.0507 121.506 37.1467 121.239 37.264L119.815 36.32L120.135 30.8H127.015V32.96H122.247L122.119 34.896C122.343 34.8427 122.567 34.8 122.791 34.768C123.015 34.7253 123.282 34.704 123.591 34.704C124.135 34.704 124.642 34.7733 125.111 34.912C125.591 35.0507 126.007 35.264 126.359 35.552C126.722 35.84 127.004 36.2133 127.207 36.672C127.41 37.12 127.511 37.6587 127.511 38.288V38.32C127.511 38.9173 127.41 39.456 127.207 39.936C127.004 40.4053 126.716 40.8107 126.343 41.152C125.98 41.4827 125.532 41.7387 124.999 41.92C124.476 42.1013 123.895 42.192 123.255 42.192ZM134.338 33.424H136.77V34.656C137.069 34.2507 137.426 33.92 137.842 33.664C138.269 33.3973 138.802 33.264 139.442 33.264C139.943 33.264 140.429 33.36 140.898 33.552C141.367 33.744 141.783 34.032 142.146 34.416C142.509 34.7893 142.797 35.2533 143.01 35.808C143.234 36.352 143.346 36.9813 143.346 37.696V37.728C143.346 38.4427 143.234 39.0773 143.01 39.632C142.797 40.176 142.509 40.64 142.146 41.024C141.794 41.3973 141.383 41.68 140.914 41.872C140.445 42.064 139.954 42.16 139.442 42.16C138.791 42.16 138.253 42.032 137.826 41.776C137.41 41.52 137.058 41.2213 136.77 40.88V44.56H134.338V33.424ZM138.818 40.096C139.106 40.096 139.373 40.0427 139.618 39.936C139.874 39.8187 140.098 39.6587 140.29 39.456C140.482 39.2427 140.631 38.992 140.738 38.704C140.855 38.416 140.914 38.0907 140.914 37.728V37.696C140.914 37.344 140.855 37.024 140.738 36.736C140.631 36.4373 140.482 36.1867 140.29 35.984C140.098 35.7707 139.874 35.6107 139.618 35.504C139.373 35.3867 139.106 35.328 138.818 35.328C138.53 35.328 138.258 35.3867 138.002 35.504C137.757 35.6107 137.538 35.7707 137.346 35.984C137.165 36.1867 137.015 36.4373 136.898 36.736C136.791 37.024 136.738 37.344 136.738 37.696V37.728C136.738 38.08 136.791 38.4053 136.898 38.704C137.015 38.992 137.165 39.2427 137.346 39.456C137.538 39.6587 137.757 39.8187 138.002 39.936C138.258 40.0427 138.53 40.096 138.818 40.096ZM145.135 30.32H147.567V34.64C147.706 34.4587 147.855 34.288 148.015 34.128C148.186 33.9573 148.372 33.808 148.575 33.68C148.778 33.552 149.002 33.4507 149.247 33.376C149.492 33.3013 149.77 33.264 150.079 33.264C151.007 33.264 151.722 33.5467 152.223 34.112C152.735 34.6773 152.991 35.456 152.991 36.448V42H150.559V37.216C150.559 36.64 150.431 36.208 150.175 35.92C149.919 35.6213 149.556 35.472 149.087 35.472C148.618 35.472 148.244 35.6213 147.967 35.92C147.7 36.208 147.567 36.64 147.567 37.216V42H145.135V30.32ZM157.952 42.16C157.024 42.16 156.304 41.8773 155.792 41.312C155.29 40.7467 155.04 39.968 155.04 38.976V33.424H157.472V38.208C157.472 38.784 157.6 39.2213 157.856 39.52C158.112 39.808 158.474 39.952 158.944 39.952C159.413 39.952 159.781 39.808 160.048 39.52C160.325 39.2213 160.464 38.784 160.464 38.208V33.424H162.896V42H160.464V40.784C160.325 40.9653 160.17 41.1413 160 41.312C159.84 41.472 159.658 41.616 159.456 41.744C159.253 41.872 159.029 41.9733 158.784 42.048C158.538 42.1227 158.261 42.16 157.952 42.16ZM159.776 29.648L161.872 30.56L159.792 32.48H158L159.776 29.648ZM167.968 42.144C167.595 42.144 167.254 42.1013 166.944 42.016C166.646 41.9413 166.384 41.8027 166.16 41.6C165.947 41.3973 165.776 41.136 165.648 40.816C165.531 40.4853 165.472 40.0693 165.472 39.568V35.504H164.448V33.424H165.472V31.232H167.904V33.424H169.92V35.504H167.904V39.168C167.904 39.7227 168.166 40 168.688 40C169.115 40 169.515 39.8987 169.888 39.696V41.648C169.632 41.7973 169.35 41.9147 169.04 42C168.731 42.096 168.374 42.144 167.968 42.144Z" fill="#478449"/>
<rect x="102.439" y="0.701005" width="84.1206" height="55.5972" rx="17.299" stroke="url(#paint5_linear_2854_449421)" stroke-width="1.40201"/>
</g>
<defs>
<filter id="filter0_diiii_2854_449421" x="0.578305" y="-2.20975" width="94.3668" height="68.0535" filterUnits="userSpaceOnUse" color-interpolation-filters="sRGB">
<feFlood flood-opacity="0" result="BackgroundImageFix"/>
<feColorMatrix in="SourceAlpha" type="matrix" values="0 0 0 0 0 0 0 0 0 0 0 0 0 0 0 0 0 0 127 0" result="hardAlpha"/>
<feOffset dy="4.4217"/>
<feGaussianBlur stdDeviation="2.21085"/>
<feComposite in2="hardAlpha" operator="out"/>
<feColorMatrix type="matrix" values="0 0 0 0 0 0 0 0 0 0 0 0 0 0 0 0 0 0 0.25 0"/>
<feBlend mode="normal" in2="BackgroundImageFix" result="effect1_dropShadow_2854_449421"/>
<feBlend mode="normal" in="SourceGraphic" in2="effect1_dropShadow_2854_449421" result="shape"/>
<feColorMatrix in="SourceAlpha" type="matrix" values="0 0 0 0 0 0 0 0 0 0 0 0 0 0 0 0 0 0 127 0" result="hardAlpha"/>
<feOffset dx="2.21085" dy="2.21085"/>
<feGaussianBlur stdDeviation="1.65814"/>
<feComposite in2="hardAlpha" operator="arithmetic" k2="-1" k3="1"/>
<feColorMatrix type="matrix" values="0 0 0 0 0 0 0 0 0 0 0 0 0 0 0 0 0 0 0.3 0"/>
<feBlend mode="normal" in2="shape" result="effect2_innerShadow_2854_449421"/>
<feColorMatrix in="SourceAlpha" type="matrix" values="0 0 0 0 0 0 0 0 0 0 0 0 0 0 0 0 0 0 127 0" result="hardAlpha"/>
<feOffset dx="2.21085" dy="-2.21085"/>
<feGaussianBlur stdDeviation="1.65814"/>
<feComposite in2="hardAlpha" operator="arithmetic" k2="-1" k3="1"/>
<feColorMatrix type="matrix" values="0 0 0 0 0 0 0 0 0 0 0 0 0 0 0 0 0 0 0.3 0"/>
<feBlend mode="normal" in2="effect2_innerShadow_2854_449421" result="effect3_innerShadow_2854_449421"/>
<feColorMatrix in="SourceAlpha" type="matrix" values="0 0 0 0 0 0 0 0 0 0 0 0 0 0 0 0 0 0 127 0" result="hardAlpha"/>
<feOffset dx="-2.21085" dy="2.21085"/>
<feGaussianBlur stdDeviation="2.21085"/>
<feComposite in2="hardAlpha" operator="arithmetic" k2="-1" k3="1"/>
<feColorMatrix type="matrix" values="0 0 0 0 0 0 0 0 0 0 0 0 0 0 0 0 0 0 0.3 0"/>
<feBlend mode="normal" in2="effect3_innerShadow_2854_449421" result="effect4_innerShadow_2854_449421"/>
<feColorMatrix in="SourceAlpha" type="matrix" values="0 0 0 0 0 0 0 0 0 0 0 0 0 0 0 0 0 0 127 0" result="hardAlpha"/>
<feOffset dx="-2.21085" dy="-2.21085"/>
<feGaussianBlur stdDeviation="1.65814"/>
<feComposite in2="hardAlpha" operator="arithmetic" k2="-1" k3="1"/>
<feColorMatrix type="matrix" values="0 0 0 0 0 0 0 0 0 0 0 0 0 0 0 0 0 0 0.3 0"/>
<feBlend mode="normal" in2="effect4_innerShadow_2854_449421" result="effect5_innerShadow_2854_449421"/>
</filter>
<filter id="filter1_diiii_2854_449421" x="194.055" y="-2.21085" width="94.3668" height="68.0535" filterUnits="userSpaceOnUse" color-interpolation-filters="sRGB">
<feFlood flood-opacity="0" result="BackgroundImageFix"/>
<feColorMatrix in="SourceAlpha" type="matrix" values="0 0 0 0 0 0 0 0 0 0 0 0 0 0 0 0 0 0 127 0" result="hardAlpha"/>
<feOffset dy="4.4217"/>
<feGaussianBlur stdDeviation="2.21085"/>
<feComposite in2="hardAlpha" operator="out"/>
<feColorMatrix type="matrix" values="0 0 0 0 0 0 0 0 0 0 0 0 0 0 0 0 0 0 0.25 0"/>
<feBlend mode="normal" in2="BackgroundImageFix" result="effect1_dropShadow_2854_449421"/>
<feBlend mode="normal" in="SourceGraphic" in2="effect1_dropShadow_2854_449421" result="shape"/>
<feColorMatrix in="SourceAlpha" type="matrix" values="0 0 0 0 0 0 0 0 0 0 0 0 0 0 0 0 0 0 127 0" result="hardAlpha"/>
<feOffset dx="2.21085" dy="2.21085"/>
<feGaussianBlur stdDeviation="1.65814"/>
<feComposite in2="hardAlpha" operator="arithmetic" k2="-1" k3="1"/>
<feColorMatrix type="matrix" values="0 0 0 0 0 0 0 0 0 0 0 0 0 0 0 0 0 0 0.3 0"/>
<feBlend mode="normal" in2="shape" result="effect2_innerShadow_2854_449421"/>
<feColorMatrix in="SourceAlpha" type="matrix" values="0 0 0 0 0 0 0 0 0 0 0 0 0 0 0 0 0 0 127 0" result="hardAlpha"/>
<feOffset dx="2.21085" dy="-2.21085"/>
<feGaussianBlur stdDeviation="1.65814"/>
<feComposite in2="hardAlpha" operator="arithmetic" k2="-1" k3="1"/>
<feColorMatrix type="matrix" values="0 0 0 0 0 0 0 0 0 0 0 0 0 0 0 0 0 0 0.3 0"/>
<feBlend mode="normal" in2="effect2_innerShadow_2854_449421" result="effect3_innerShadow_2854_449421"/>
<feColorMatrix in="SourceAlpha" type="matrix" values="0 0 0 0 0 0 0 0 0 0 0 0 0 0 0 0 0 0 127 0" result="hardAlpha"/>
<feOffset dx="-2.21085" dy="2.21085"/>
<feGaussianBlur stdDeviation="2.21085"/>
<feComposite in2="hardAlpha" operator="arithmetic" k2="-1" k3="1"/>
<feColorMatrix type="matrix" values="0 0 0 0 0 0 0 0 0 0 0 0 0 0 0 0 0 0 0.3 0"/>
<feBlend mode="normal" in2="effect3_innerShadow_2854_449421" result="effect4_innerShadow_2854_449421"/>
<feColorMatrix in="SourceAlpha" type="matrix" values="0 0 0 0 0 0 0 0 0 0 0 0 0 0 0 0 0 0 127 0" result="hardAlpha"/>
<feOffset dx="-2.21085" dy="-2.21085"/>
<feGaussianBlur stdDeviation="1.65814"/>
<feComposite in2="hardAlpha" operator="arithmetic" k2="-1" k3="1"/>
<feColorMatrix type="matrix" values="0 0 0 0 0 0 0 0 0 0 0 0 0 0 0 0 0 0 0.3 0"/>
<feBlend mode="normal" in2="effect4_innerShadow_2854_449421" result="effect5_innerShadow_2854_449421"/>
</filter>
<filter id="filter2_diiii_2854_449421" x="97.3166" y="-2.21085" width="94.3668" height="68.0535" filterUnits="userSpaceOnUse" color-interpolation-filters="sRGB">
<feFlood flood-opacity="0" result="BackgroundImageFix"/>
<feColorMatrix in="SourceAlpha" type="matrix" values="0 0 0 0 0 0 0 0 0 0 0 0 0 0 0 0 0 0 127 0" result="hardAlpha"/>
<feOffset dy="4.4217"/>
<feGaussianBlur stdDeviation="2.21085"/>
<feComposite in2="hardAlpha" operator="out"/>
<feColorMatrix type="matrix" values="0 0 0 0 0 0 0 0 0 0 0 0 0 0 0 0 0 0 0.25 0"/>
<feBlend mode="normal" in2="BackgroundImageFix" result="effect1_dropShadow_2854_449421"/>
<feBlend mode="normal" in="SourceGraphic" in2="effect1_dropShadow_2854_449421" result="shape"/>
<feColorMatrix in="SourceAlpha" type="matrix" values="0 0 0 0 0 0 0 0 0 0 0 0 0 0 0 0 0 0 127 0" result="hardAlpha"/>
<feOffset dx="2.21085" dy="2.21085"/>
<feGaussianBlur stdDeviation="1.65814"/>
<feComposite in2="hardAlpha" operator="arithmetic" k2="-1" k3="1"/>
<feColorMatrix type="matrix" values="0 0 0 0 0 0 0 0 0 0 0 0 0 0 0 0 0 0 0.3 0"/>
<feBlend mode="normal" in2="shape" result="effect2_innerShadow_2854_449421"/>
<feColorMatrix in="SourceAlpha" type="matrix" values="0 0 0 0 0 0 0 0 0 0 0 0 0 0 0 0 0 0 127 0" result="hardAlpha"/>
<feOffset dx="2.21085" dy="-2.21085"/>
<feGaussianBlur stdDeviation="1.65814"/>
<feComposite in2="hardAlpha" operator="arithmetic" k2="-1" k3="1"/>
<feColorMatrix type="matrix" values="0 0 0 0 0 0 0 0 0 0 0 0 0 0 0 0 0 0 0.3 0"/>
<feBlend mode="normal" in2="effect2_innerShadow_2854_449421" result="effect3_innerShadow_2854_449421"/>
<feColorMatrix in="SourceAlpha" type="matrix" values="0 0 0 0 0 0 0 0 0 0 0 0 0 0 0 0 0 0 127 0" result="hardAlpha"/>
<feOffset dx="-2.21085" dy="2.21085"/>
<feGaussianBlur stdDeviation="2.21085"/>
<feComposite in2="hardAlpha" operator="arithmetic" k2="-1" k3="1"/>
<feColorMatrix type="matrix" values="0 0 0 0 0 0 0 0 0 0 0 0 0 0 0 0 0 0 0.3 0"/>
<feBlend mode="normal" in2="effect3_innerShadow_2854_449421" result="effect4_innerShadow_2854_449421"/>
<feColorMatrix in="SourceAlpha" type="matrix" values="0 0 0 0 0 0 0 0 0 0 0 0 0 0 0 0 0 0 127 0" result="hardAlpha"/>
<feOffset dx="-2.21085" dy="-2.21085"/>
<feGaussianBlur stdDeviation="1.65814"/>
<feComposite in2="hardAlpha" operator="arithmetic" k2="-1" k3="1"/>
<feColorMatrix type="matrix" values="0 0 0 0 0 0 0 0 0 0 0 0 0 0 0 0 0 0 0.3 0"/>
<feBlend mode="normal" in2="effect4_innerShadow_2854_449421" result="effect5_innerShadow_2854_449421"/>
</filter>
<linearGradient id="paint0_linear_2854_449421" x1="93.1453" y1="15.1075" x2="1.15188" y2="37.9986" gradientUnits="userSpaceOnUse">
<stop stop-color="#FFC200"/>
<stop offset="0.352024" stop-color="#F1ED86"/>
<stop offset="0.609375" stop-color="#ECD24A"/>
<stop offset="0.802083" stop-color="#ECD24A"/>
<stop offset="1" stop-color="#FFC200"/>
</linearGradient>
<linearGradient id="paint1_linear_2854_449421" x1="90.5226" y1="57.0003" x2="-1.12733" y2="23.6001" gradientUnits="userSpaceOnUse">
<stop stop-color="#73A442"/>
<stop offset="1" stop-color="#478449"/>
</linearGradient>
<linearGradient id="paint2_linear_2854_449421" x1="286.622" y1="15.1064" x2="194.628" y2="37.9975" gradientUnits="userSpaceOnUse">
<stop stop-color="#FFC200"/>
<stop offset="0.352024" stop-color="#F1ED86"/>
<stop offset="0.609375" stop-color="#ECD24A"/>
<stop offset="0.802083" stop-color="#ECD24A"/>
<stop offset="1" stop-color="#FFC200"/>
</linearGradient>
<linearGradient id="paint3_linear_2854_449421" x1="283.999" y1="56.9992" x2="192.349" y2="23.599" gradientUnits="userSpaceOnUse">
<stop stop-color="#73A442"/>
<stop offset="1" stop-color="#478449"/>
</linearGradient>
<linearGradient id="paint4_linear_2854_449421" x1="189.884" y1="15.1064" x2="97.8902" y2="37.9975" gradientUnits="userSpaceOnUse">
<stop stop-color="#FFC200"/>
<stop offset="0.352024" stop-color="#F1ED86"/>
<stop offset="0.609375" stop-color="#ECD24A"/>
<stop offset="0.802083" stop-color="#ECD24A"/>
<stop offset="1" stop-color="#FFC200"/>
</linearGradient>
<linearGradient id="paint5_linear_2854_449421" x1="187.261" y1="56.9992" x2="95.611" y2="23.599" gradientUnits="userSpaceOnUse">
<stop stop-color="#73A442"/>
<stop offset="1" stop-color="#478449"/>
</linearGradient>
</defs>
</svg>
