<svg width="111" height="111" viewBox="0 0 111 111" fill="none" xmlns="http://www.w3.org/2000/svg">
<circle cx="55" cy="45" r="27" fill="white"/>
<path d="M55.0004 18.9C40.5822 18.9 28.9004 30.5818 28.9004 45C28.9004 59.4181 40.5822 71.1 55.0004 71.1C69.4185 71.1 81.1004 59.4181 81.1004 45C81.1004 30.5818 69.4185 18.9 55.0004 18.9ZM63.4197 36.5806C65.2825 36.5806 66.7875 38.0856 66.7875 39.9483C66.7875 41.8111 65.2825 43.3161 63.4197 43.3161C61.557 43.3161 60.052 41.8111 60.052 39.9483C60.052 38.0856 61.557 36.5806 63.4197 36.5806ZM46.581 36.5806C48.4438 36.5806 49.9488 38.0856 49.9488 39.9483C49.9488 41.8111 48.4438 43.3161 46.581 43.3161C44.7183 43.3161 43.2133 41.8111 43.2133 39.9483C43.2133 38.0856 44.7183 36.5806 46.581 36.5806ZM67.0822 54.4928C64.0828 58.0921 59.6837 60.1548 55.0004 60.1548C50.3171 60.1548 45.918 58.0921 42.9186 54.4928C41.4873 52.7773 44.0763 50.6304 45.5076 52.3353C47.865 55.1663 51.3169 56.7765 55.0004 56.7765C58.6839 56.7765 62.1358 55.1558 64.4932 52.3353C65.9035 50.6304 68.5029 52.7773 67.0822 54.4928Z" fill="#478449"/>
<path d="M33.4612 97H38.3752C42.3352 97 45.0712 94.246 45.0712 90.7V90.664C45.0712 87.118 42.3352 84.4 38.3752 84.4H33.4612V89.44H32.1112V91.888H33.4612V97ZM36.1972 94.498V91.888H38.9332V89.44H36.1972V86.902H38.3752C40.6252 86.902 42.1732 88.468 42.1732 90.7V90.736C42.1732 92.968 40.6252 94.498 38.3752 94.498H36.1972ZM50.4446 97.18C51.8126 97.18 52.6406 96.442 53.2706 95.632V97H56.0066V89.566C57.2306 89.152 57.8786 88.396 57.9686 87.334C57.9686 86.992 57.8966 86.074 57.5906 85.192H54.9086C55.4666 86.2 55.5386 86.704 55.5386 86.974C55.5386 87.172 55.4126 87.298 55.1786 87.352H53.2706V92.734C53.2706 94.03 52.6226 94.696 51.5606 94.696C50.4986 94.696 49.9046 94.03 49.9046 92.734V87.352H47.1686V93.598C47.1686 95.83 48.3566 97.18 50.4446 97.18ZM63.3125 97.216C66.3185 97.216 68.5505 94.966 68.5505 92.194V92.158C68.5505 91.204 68.2985 90.322 67.7945 89.548C68.5325 89.116 68.9285 88.486 68.9825 87.658C68.9825 87.316 68.9105 86.398 68.6045 85.516H65.9225C66.4805 86.524 66.5525 87.028 66.5525 87.298C66.5525 87.568 66.3905 87.694 65.8325 87.748C65.0945 87.388 64.2665 87.172 63.3485 87.172C60.3425 87.172 58.1105 89.422 58.1105 92.194V92.23C58.1105 95.02 60.3425 97.216 63.3125 97.216ZM63.3485 94.858C61.8365 94.858 60.8105 93.616 60.8105 92.194V92.158C60.8105 90.718 61.7465 89.53 63.3125 89.53C64.8245 89.53 65.8505 90.772 65.8505 92.194V92.23C65.8505 93.67 64.9145 94.858 63.3485 94.858ZM62.0525 100.582H64.6265V98.206H62.0525V100.582ZM75.0856 97.216C77.0116 97.216 78.0916 96.478 79.0276 95.452L77.4256 93.832C76.7596 94.462 76.1296 94.858 75.2116 94.858C73.7176 94.858 72.7636 93.688 72.7636 92.194V92.158C72.7636 90.718 73.7356 89.53 75.1036 89.53C76.0936 89.53 76.6696 89.944 77.2996 90.592L78.9736 88.792C78.0556 87.784 76.9396 87.172 75.1216 87.172C72.1696 87.172 70.0636 89.44 70.0636 92.194V92.23C70.0636 94.966 72.1876 97.216 75.0856 97.216Z" fill="black"/>
</svg>
