<svg width="76" height="72" viewBox="0 0 76 72" fill="none" xmlns="http://www.w3.org/2000/svg">
<circle cx="38" cy="26" r="18" fill="white"/>
<path d="M38.0001 8.78261C28.4889 8.78261 20.7827 16.4888 20.7827 26C20.7827 35.5112 28.4889 43.2174 38.0001 43.2174C47.5113 43.2174 55.2175 35.5112 55.2175 26C55.2175 16.4888 47.5113 8.78261 38.0001 8.78261ZM43.5541 20.446C44.7829 20.446 45.7757 21.4388 45.7757 22.6676C45.7757 23.8964 44.7829 24.8892 43.5541 24.8892C42.3253 24.8892 41.3325 23.8964 41.3325 22.6676C41.3325 21.4388 42.3253 20.446 43.5541 20.446ZM32.4461 20.446C33.6749 20.446 34.6677 21.4388 34.6677 22.6676C34.6677 23.8964 33.6749 24.8892 32.4461 24.8892C31.2173 24.8892 30.2245 23.8964 30.2245 22.6676C30.2245 21.4388 31.2173 20.446 32.4461 20.446ZM45.9701 32.2621C43.9915 34.6365 41.0895 35.9972 38.0001 35.9972C34.9107 35.9972 32.0087 34.6365 30.0301 32.2621C29.0859 31.1305 30.7938 29.7142 31.738 30.8389C33.2931 32.7065 35.5702 33.7687 38.0001 33.7687C40.43 33.7687 42.7071 32.6995 44.2622 30.8389C45.1925 29.7142 46.9073 31.1305 45.9701 32.2621Z" fill="#478449"/>
<path d="M38.0001 8.78261C28.4889 8.78261 20.7827 16.4888 20.7827 26C20.7827 35.5112 28.4889 43.2174 38.0001 43.2174C47.5113 43.2174 55.2175 35.5112 55.2175 26C55.2175 16.4888 47.5113 8.78261 38.0001 8.78261ZM43.5541 20.446C44.7829 20.446 45.7757 21.4388 45.7757 22.6676C45.7757 23.8964 44.7829 24.8892 43.5541 24.8892C42.3253 24.8892 41.3325 23.8964 41.3325 22.6676C41.3325 21.4388 42.3253 20.446 43.5541 20.446ZM32.4461 20.446C33.6749 20.446 34.6677 21.4388 34.6677 22.6676C34.6677 23.8964 33.6749 24.8892 32.4461 24.8892C31.2173 24.8892 30.2245 23.8964 30.2245 22.6676C30.2245 21.4388 31.2173 20.446 32.4461 20.446ZM45.9701 32.2621C43.9915 34.6365 41.0895 35.9972 38.0001 35.9972C34.9107 35.9972 32.0087 34.6365 30.0301 32.2621C29.0859 31.1305 30.7938 29.7142 31.738 30.8389C33.2931 32.7065 35.5702 33.7687 38.0001 33.7687C40.43 33.7687 42.7071 32.6995 44.2622 30.8389C45.1925 29.7142 46.9073 31.1305 45.9701 32.2621Z" stroke="white"/>
<path d="M23.3075 64H26.5835C29.2235 64 31.0475 62.164 31.0475 59.8V59.776C31.0475 57.412 29.2235 55.6 26.5835 55.6H23.3075V58.96H22.4075V60.592H23.3075V64ZM25.1315 62.332V60.592H26.9555V58.96H25.1315V57.268H26.5835C28.0835 57.268 29.1155 58.312 29.1155 59.8V59.824C29.1155 61.312 28.0835 62.332 26.5835 62.332H25.1315ZM34.6297 64.12C35.5417 64.12 36.0937 63.628 36.5137 63.088V64H38.3377V59.044C39.1537 58.768 39.5857 58.264 39.6457 57.556C39.6457 57.328 39.5977 56.716 39.3937 56.128H37.6057C37.9777 56.8 38.0257 57.136 38.0257 57.316C38.0257 57.448 37.9417 57.532 37.7857 57.568H36.5137V61.156C36.5137 62.02 36.0817 62.464 35.3737 62.464C34.6657 62.464 34.2697 62.02 34.2697 61.156V57.568H32.4457V61.732C32.4457 63.22 33.2377 64.12 34.6297 64.12ZM43.2083 64.144C45.2123 64.144 46.7003 62.644 46.7003 60.796V60.772C46.7003 60.136 46.5323 59.548 46.1963 59.032C46.6883 58.744 46.9523 58.324 46.9883 57.772C46.9883 57.544 46.9403 56.932 46.7363 56.344H44.9483C45.3203 57.016 45.3683 57.352 45.3683 57.532C45.3683 57.712 45.2603 57.796 44.8883 57.832C44.3963 57.592 43.8443 57.448 43.2323 57.448C41.2283 57.448 39.7403 58.948 39.7403 60.796V60.82C39.7403 62.68 41.2283 64.144 43.2083 64.144ZM43.2323 62.572C42.2243 62.572 41.5403 61.744 41.5403 60.796V60.772C41.5403 59.812 42.1643 59.02 43.2083 59.02C44.2163 59.02 44.9003 59.848 44.9003 60.796V60.82C44.9003 61.78 44.2763 62.572 43.2323 62.572ZM42.3683 66.388H44.0843V64.804H42.3683V66.388ZM51.0571 64.144C52.3411 64.144 53.0611 63.652 53.6851 62.968L52.6171 61.888C52.1731 62.308 51.7531 62.572 51.1411 62.572C50.1451 62.572 49.5091 61.792 49.5091 60.796V60.772C49.5091 59.812 50.1571 59.02 51.0691 59.02C51.7291 59.02 52.1131 59.296 52.5331 59.728L53.6491 58.528C53.0371 57.856 52.2931 57.448 51.0811 57.448C49.1131 57.448 47.7091 58.96 47.7091 60.796V60.82C47.7091 62.644 49.1251 64.144 51.0571 64.144Z" fill="white"/>
</svg>
