<svg width="65" height="61" viewBox="0 0 65 61" fill="none" xmlns="http://www.w3.org/2000/svg">
<circle cx="32.4883" cy="22.4998" r="15.5" fill="white"/>
<path d="M32.4887 7.67355C24.2985 7.67355 17.6626 14.3094 17.6626 22.4996C17.6626 30.6899 24.2985 37.3257 32.4887 37.3257C40.6789 37.3257 47.3148 30.6899 47.3148 22.4996C47.3148 14.3094 40.6789 7.67355 32.4887 7.67355ZM37.2713 17.717C38.3294 17.717 39.1843 18.5719 39.1843 19.6301C39.1843 20.6882 38.3294 21.5431 37.2713 21.5431C36.2131 21.5431 35.3583 20.6882 35.3583 19.6301C35.3583 18.5719 36.2131 17.717 37.2713 17.717ZM27.7061 17.717C28.7642 17.717 29.6191 18.5719 29.6191 19.6301C29.6191 20.6882 28.7642 21.5431 27.7061 21.5431C26.6479 21.5431 25.793 20.6882 25.793 19.6301C25.793 18.5719 26.6479 17.717 27.7061 17.717ZM39.3517 27.892C37.6479 29.9366 35.149 31.1083 32.4887 31.1083C29.8284 31.1083 27.3294 29.9366 25.6256 27.892C24.8126 26.9176 26.2833 25.698 27.0963 26.6665C28.4354 28.2746 30.3963 29.1893 32.4887 29.1893C34.5811 29.1893 36.5419 28.2687 37.8811 26.6665C38.6822 25.698 40.1588 26.9176 39.3517 27.892Z" fill="#478449"/>
<path d="M32.4887 7.67355C24.2985 7.67355 17.6626 14.3094 17.6626 22.4996C17.6626 30.6899 24.2985 37.3257 32.4887 37.3257C40.6789 37.3257 47.3148 30.6899 47.3148 22.4996C47.3148 14.3094 40.6789 7.67355 32.4887 7.67355ZM37.2713 17.717C38.3294 17.717 39.1843 18.5719 39.1843 19.6301C39.1843 20.6882 38.3294 21.5431 37.2713 21.5431C36.2131 21.5431 35.3583 20.6882 35.3583 19.6301C35.3583 18.5719 36.2131 17.717 37.2713 17.717ZM27.7061 17.717C28.7642 17.717 29.6191 18.5719 29.6191 19.6301C29.6191 20.6882 28.7642 21.5431 27.7061 21.5431C26.6479 21.5431 25.793 20.6882 25.793 19.6301C25.793 18.5719 26.6479 17.717 27.7061 17.717ZM39.3517 27.892C37.6479 29.9366 35.149 31.1083 32.4887 31.1083C29.8284 31.1083 27.3294 29.9366 25.6256 27.892C24.8126 26.9176 26.2833 25.698 27.0963 26.6665C28.4354 28.2746 30.3963 29.1893 32.4887 29.1893C34.5811 29.1893 36.5419 28.2687 37.8811 26.6665C38.6822 25.698 40.1588 26.9176 39.3517 27.892Z" stroke="white"/>
<path d="M19.7976 54H22.5803C24.8228 54 26.3721 52.4405 26.3721 50.4325V50.4121C26.3721 48.4041 24.8228 46.8649 22.5803 46.8649H19.7976V49.719H19.0332V51.1052H19.7976V54ZM21.347 52.5832V51.1052H22.8963V49.719H21.347V48.2818H22.5803C23.8544 48.2818 24.731 49.1685 24.731 50.4325V50.4529C24.731 51.7168 23.8544 52.5832 22.5803 52.5832H21.347ZM29.4149 54.1019C30.1896 54.1019 30.6585 53.684 31.0152 53.2253V54H32.5645V49.7903C33.2577 49.5559 33.6246 49.1278 33.6756 48.5264C33.6756 48.3327 33.6348 47.8129 33.4615 47.3134H31.9428C32.2588 47.8842 32.2995 48.1696 32.2995 48.3225C32.2995 48.4347 32.2282 48.506 32.0957 48.5366H31.0152V51.5843C31.0152 52.3182 30.6483 52.6953 30.0469 52.6953C29.4455 52.6953 29.1091 52.3182 29.1091 51.5843V48.5366H27.5598V52.0735C27.5598 53.3375 28.2325 54.1019 29.4149 54.1019ZM36.7017 54.1223C38.4039 54.1223 39.6678 52.8482 39.6678 51.2785V51.2581C39.6678 50.7179 39.5251 50.2184 39.2397 49.7801C39.6576 49.5355 39.8819 49.1787 39.9125 48.7099C39.9125 48.5162 39.8717 47.9964 39.6984 47.4969H38.1797C38.4956 48.0677 38.5364 48.3531 38.5364 48.506C38.5364 48.6589 38.4447 48.7302 38.1287 48.7608C37.7108 48.557 37.2419 48.4347 36.7221 48.4347C35.0199 48.4347 33.7559 49.7088 33.7559 51.2785V51.2989C33.7559 52.8788 35.0199 54.1223 36.7017 54.1223ZM36.7221 52.787C35.8659 52.787 35.2849 52.0837 35.2849 51.2785V51.2581C35.2849 50.4427 35.8149 49.7699 36.7017 49.7699C37.5579 49.7699 38.1389 50.4732 38.1389 51.2785V51.2989C38.1389 52.1143 37.6089 52.787 36.7221 52.787ZM35.9882 56.0284H37.4458V54.6829H35.9882V56.0284ZM43.3685 54.1223C44.4592 54.1223 45.0707 53.7044 45.6008 53.1234L44.6936 52.206C44.3165 52.5628 43.9597 52.787 43.4399 52.787C42.5939 52.787 42.0536 52.1245 42.0536 51.2785V51.2581C42.0536 50.4427 42.604 49.7699 43.3787 49.7699C43.9393 49.7699 44.2655 50.0044 44.6222 50.3713L45.5702 49.352C45.0504 48.7812 44.4184 48.4347 43.3889 48.4347C41.7173 48.4347 40.5247 49.719 40.5247 51.2785V51.2989C40.5247 52.8482 41.7275 54.1223 43.3685 54.1223Z" fill="white"/>
</svg>
