<svg width="111" height="111" viewBox="0 0 111 111" fill="none" xmlns="http://www.w3.org/2000/svg">
<circle cx="55" cy="45" r="27" fill="white"/>
<path d="M54.9999 18.9C40.5818 18.9 28.8999 30.5818 28.8999 45C28.8999 59.4181 40.5818 71.1 54.9999 71.1C69.418 71.1 81.0999 59.4181 81.0999 45C81.0999 30.5818 69.418 18.9 54.9999 18.9ZM63.4193 36.5806C65.282 36.5806 66.787 38.0856 66.787 39.9484C66.787 41.8112 65.282 43.3161 63.4193 43.3161C61.5565 43.3161 60.0515 41.8112 60.0515 39.9484C60.0515 38.0856 61.5565 36.5806 63.4193 36.5806ZM46.5805 36.5806C48.4433 36.5806 49.9483 38.0856 49.9483 39.9484C49.9483 41.8112 48.4433 43.3161 46.5805 43.3161C44.7178 43.3161 43.2128 41.8112 43.2128 39.9484C43.2128 38.0856 44.7178 36.5806 46.5805 36.5806ZM67.0817 54.4928C64.0823 58.0921 59.6832 60.1548 54.9999 60.1548C50.3166 60.1548 45.9175 58.0921 42.9181 54.4928C41.4868 52.7774 44.0758 50.6304 45.5071 52.3354C47.8645 55.1664 51.3164 56.7766 54.9999 56.7766C58.6834 56.7766 62.1353 55.1558 64.4927 52.3354C65.903 50.6304 68.5024 52.7774 67.0817 54.4928Z" fill="#478449"/>
<path d="M16.5393 81.4H19.3113V86.386H24.4233V81.4H27.1953V94H24.4233V88.942H19.3113V94H16.5393V81.4ZM29.9811 80.5H32.8611V82.93H29.9811V80.5ZM30.0531 84.352H32.7891V94H30.0531V84.352ZM43.9988 81.112H42.1268L43.7648 78.286L45.9428 79.312L43.9988 81.112ZM39.9308 94.216C39.2108 94.216 38.5388 94.096 37.9148 93.856C37.3028 93.616 36.7688 93.274 36.3128 92.83C35.8688 92.386 35.5208 91.864 35.2688 91.264C35.0168 90.652 34.8908 89.974 34.8908 89.23V89.194C34.8908 88.51 35.0048 87.862 35.2328 87.25C35.4728 86.638 35.8028 86.104 36.2228 85.648C36.6428 85.192 37.1408 84.832 37.7168 84.568C38.3048 84.304 38.9528 84.172 39.6608 84.172C40.4648 84.172 41.1608 84.316 41.7488 84.604C42.3368 84.892 42.8228 85.282 43.2068 85.774C43.6028 86.254 43.8908 86.812 44.0708 87.448C44.2628 88.072 44.3588 88.726 44.3588 89.41C44.3588 89.518 44.3528 89.632 44.3408 89.752C44.3408 89.872 44.3348 89.998 44.3228 90.13H37.6088C37.7408 90.754 38.0108 91.228 38.4188 91.552C38.8388 91.864 39.3548 92.02 39.9668 92.02C40.4228 92.02 40.8308 91.942 41.1908 91.786C41.5508 91.63 41.9228 91.378 42.3068 91.03L43.8728 92.416C43.4168 92.98 42.8648 93.424 42.2168 93.748C41.5688 94.06 40.8068 94.216 39.9308 94.216ZM41.6948 88.42C41.6108 87.808 41.3948 87.316 41.0468 86.944C40.6988 86.56 40.2368 86.368 39.6608 86.368C39.0848 86.368 38.6168 86.554 38.2568 86.926C37.9088 87.298 37.6808 87.796 37.5728 88.42H41.6948ZM38.4728 80.464H41.0648L43.2788 83.29H41.1728L39.7508 82.102L38.3288 83.29H36.2588L38.4728 80.464ZM46.3978 84.352H49.1338V85.72C49.2898 85.516 49.4578 85.324 49.6378 85.144C49.8298 84.952 50.0398 84.784 50.2678 84.64C50.4958 84.496 50.7478 84.382 51.0238 84.298C51.3118 84.214 51.6298 84.172 51.9778 84.172C52.6138 84.172 53.1598 84.304 53.6158 84.568C54.0838 84.832 54.4438 85.21 54.6958 85.702C55.1158 85.198 55.5838 84.82 56.0998 84.568C56.6158 84.304 57.2038 84.172 57.8638 84.172C58.8838 84.172 59.6818 84.472 60.2578 85.072C60.8338 85.672 61.1218 86.554 61.1218 87.718V94H58.3858V88.618C58.3858 87.97 58.2478 87.484 57.9718 87.16C57.6958 86.824 57.2998 86.656 56.7838 86.656C56.2678 86.656 55.8598 86.824 55.5598 87.16C55.2718 87.484 55.1278 87.97 55.1278 88.618V94H52.3918V88.618C52.3918 87.97 52.2538 87.484 51.9778 87.16C51.7018 86.824 51.3058 86.656 50.7898 86.656C50.2738 86.656 49.8658 86.824 49.5658 87.16C49.2778 87.484 49.1338 87.97 49.1338 88.618V94H46.3978V84.352ZM68.8978 80.86H71.6338V87.862L74.8378 84.352H78.1138L74.4418 88.15L78.2398 94H75.0718L72.6058 90.04L71.6338 91.066V94H68.8978V80.86ZM79.5502 80.86H82.2862V85.72C82.4422 85.516 82.6102 85.324 82.7902 85.144C82.9822 84.952 83.1922 84.784 83.4202 84.64C83.6482 84.496 83.9002 84.382 84.1762 84.298C84.4522 84.214 84.7642 84.172 85.1122 84.172C86.1562 84.172 86.9602 84.49 87.5242 85.126C88.1002 85.762 88.3882 86.638 88.3882 87.754V94H85.6522V88.618C85.6522 87.97 85.5082 87.484 85.2202 87.16C84.9322 86.824 84.5242 86.656 83.9962 86.656C83.4682 86.656 83.0482 86.824 82.7362 87.16C82.4362 87.484 82.2862 87.97 82.2862 88.618V94H79.5502V80.86ZM90.819 80.5H93.699V82.93H90.819V80.5ZM90.891 84.352H93.627V94H90.891V84.352Z" fill="black"/>
</svg>
