<svg width="111" height="111" viewBox="0 0 111 111" fill="none" xmlns="http://www.w3.org/2000/svg">
<circle cx="55" cy="45" r="27" fill="white"/>
<path d="M55.0002 18.9C49.8381 18.9 44.7919 20.4308 40.4998 23.2987C36.2077 26.1666 32.8623 30.2428 30.8869 35.012C28.9115 39.7811 28.3946 45.029 29.4017 50.0919C30.4087 55.1548 32.8945 59.8054 36.5447 63.4555C40.1948 67.1057 44.8454 69.5914 49.9083 70.5985C54.9712 71.6056 60.219 71.0887 64.9882 69.1133C69.7573 67.1378 73.8336 63.7925 76.7015 59.5004C79.5694 55.2083 81.1001 50.1621 81.1001 45C81.0922 38.0803 78.3398 31.4463 73.4468 26.5533C68.5539 21.6604 61.9199 18.908 55.0002 18.9ZM64.0348 36.9693C64.6304 36.9693 65.2126 37.1459 65.7079 37.4768C66.2031 37.8077 66.5891 38.278 66.8171 38.8283C67.045 39.3786 67.1046 39.9841 66.9884 40.5683C66.8722 41.1525 66.5854 41.6891 66.1642 42.1103C65.7431 42.5314 65.2065 42.8183 64.6223 42.9345C64.0381 43.0507 63.4326 42.991 62.8823 42.7631C62.332 42.5352 61.8617 42.1492 61.5308 41.6539C61.1999 41.1587 61.0232 40.5764 61.0232 39.9808C61.0232 39.1821 61.3405 38.4161 61.9053 37.8513C62.4701 37.2865 63.2361 36.9693 64.0348 36.9693ZM45.9655 36.9693C46.5612 36.9693 47.1434 37.1459 47.6387 37.4768C48.1339 37.8077 48.5199 38.278 48.7478 38.8283C48.9758 39.3786 49.0354 39.9841 48.9192 40.5683C48.803 41.1525 48.5162 41.6891 48.095 42.1103C47.6738 42.5314 47.1372 42.8183 46.5531 42.9345C45.9689 43.0507 45.3634 42.991 44.8131 42.7631C44.2628 42.5352 43.7924 42.1492 43.4615 41.6539C43.1306 41.1587 42.954 40.5764 42.954 39.9808C42.954 39.1821 43.2713 38.4161 43.8361 37.8513C44.4008 37.2865 45.1668 36.9693 45.9655 36.9693ZM66.4402 58.7841C66.212 58.9162 65.96 59.002 65.6987 59.0367C65.4373 59.0714 65.1716 59.0542 64.9169 58.9861C64.6621 58.9181 64.4233 58.8005 64.214 58.6401C64.0047 58.4797 63.8291 58.2796 63.6972 58.0513C62.8158 56.5246 61.5481 55.2569 60.0214 54.3754C58.4948 53.494 56.763 53.03 55.0002 53.03C53.2373 53.03 51.5055 53.494 49.9789 54.3754C48.4522 55.2569 47.1845 56.5246 46.3031 58.0513C46.0342 58.5075 45.5959 58.839 45.0837 58.9736C44.5714 59.1082 44.0268 59.035 43.5683 58.7698C43.1099 58.5047 42.7747 58.0691 42.6359 57.558C42.4971 57.0469 42.5659 56.5017 42.8273 56.0411C44.0613 53.9047 45.8358 52.1308 47.9726 50.8975C50.1093 49.6641 52.533 49.0149 55.0002 49.0149C57.4673 49.0149 59.891 49.6641 62.0277 50.8975C64.1645 52.1308 65.939 53.9047 67.173 56.0411C67.4396 56.502 67.5121 57.0499 67.3747 57.5643C67.2373 58.0787 66.9011 58.5175 66.4402 58.7841Z" fill="#E23F30"/>
<path d="M1.61454 97H4.38654V93.148L5.84454 91.636L9.75054 97H13.0805L7.71654 89.746L12.8465 84.4H9.49854L4.38654 89.908V84.4H1.61454V97ZM14.475 97H17.211V91.618C17.211 90.322 17.859 89.656 18.921 89.656C19.983 89.656 20.577 90.322 20.577 91.618V97H23.313V90.754C23.313 88.522 22.125 87.172 20.037 87.172C18.669 87.172 17.841 87.91 17.211 88.72V83.86H14.475V97ZM30.4238 97.216C33.4298 97.216 35.6618 94.966 35.6618 92.194V92.158C35.6618 89.368 33.4298 87.172 30.4598 87.172C27.4538 87.172 25.2218 89.422 25.2218 92.194V92.23C25.2218 95.02 27.4538 97.216 30.4238 97.216ZM30.4598 94.858C28.9478 94.858 27.9218 93.616 27.9218 92.194V92.158C27.9218 90.718 28.8578 89.53 30.4238 89.53C31.9358 89.53 32.9618 90.772 32.9618 92.194V92.23C32.9618 93.67 32.0258 94.858 30.4598 94.858ZM26.9318 86.29H29.0018L30.4238 85.102L31.8458 86.29H33.9518L31.7378 83.464H29.1458L26.9318 86.29ZM37.6429 97H40.3789V91.618C40.3789 90.322 41.0269 89.656 42.0889 89.656C43.1509 89.656 43.7449 90.322 43.7449 91.618V97H46.4809V90.754C46.4809 88.522 45.2929 87.172 43.2049 87.172C41.8369 87.172 41.0089 87.91 40.3789 88.72V87.352H37.6429V97ZM53.1778 99.916C55.0498 99.916 56.4178 99.538 57.3358 98.62C58.1458 97.81 58.5598 96.532 58.5598 94.822V87.352H55.8238V88.612C55.0858 87.802 54.2038 87.172 52.7098 87.172C50.4958 87.172 48.4258 88.792 48.4258 91.672V91.708C48.4258 94.588 50.4598 96.208 52.7098 96.208C54.1678 96.208 55.0498 95.632 55.8598 94.642V95.11C55.8598 96.838 54.9778 97.738 53.1058 97.738C51.8098 97.738 50.8558 97.414 49.8478 96.856L48.9118 98.908C50.1358 99.556 51.5938 99.916 53.1778 99.916ZM53.5018 93.94C52.1518 93.94 51.1618 93.058 51.1618 91.708V91.672C51.1618 90.358 52.1698 89.44 53.5018 89.44C54.8518 89.44 55.8598 90.358 55.8598 91.672V91.708C55.8598 93.022 54.8518 93.94 53.5018 93.94ZM70.5768 86.326H73.3668V88.612C72.7188 87.838 71.8188 87.172 70.3608 87.172C68.0748 87.172 65.9688 88.936 65.9688 92.158V92.194C65.9688 95.416 68.1108 97.18 70.3608 97.18C71.8008 97.18 72.7008 96.532 73.3668 95.614V97H76.1028V86.326H77.3268V84.796H76.1028V83.86H73.3668V84.796H70.5768V86.326ZM71.0628 94.858C69.7848 94.858 68.7048 93.796 68.7048 92.194V92.158C68.7048 90.538 69.7848 89.494 71.0628 89.494C72.3408 89.494 73.4028 90.556 73.4028 92.158V92.194C73.4028 93.796 72.3408 94.858 71.0628 94.858ZM81.7512 97.18C83.1192 97.18 83.9472 96.442 84.5772 95.632V97H87.3132V89.566C88.5372 89.152 89.1852 88.396 89.2752 87.334C89.2752 86.992 89.2032 86.074 88.8972 85.192H86.2152C86.7732 86.2 86.8452 86.704 86.8452 86.974C86.8452 87.172 86.7192 87.298 86.4852 87.352H84.5772V92.734C84.5772 94.03 83.9292 94.696 82.8672 94.696C81.8052 94.696 81.2112 94.03 81.2112 92.734V87.352H78.4752V93.598C78.4752 95.83 79.6632 97.18 81.7512 97.18ZM94.6191 97.216C97.6251 97.216 99.8571 94.966 99.8571 92.194V92.158C99.8571 91.204 99.6051 90.322 99.1011 89.548C99.8391 89.116 100.235 88.486 100.289 87.658C100.289 87.316 100.217 86.398 99.9111 85.516H97.2291C97.7871 86.524 97.8591 87.028 97.8591 87.298C97.8591 87.568 97.6971 87.694 97.1391 87.748C96.4011 87.388 95.5731 87.172 94.6551 87.172C91.6491 87.172 89.4171 89.422 89.4171 92.194V92.23C89.4171 95.02 91.6491 97.216 94.6191 97.216ZM94.6551 94.858C93.1431 94.858 92.1171 93.616 92.1171 92.194V92.158C92.1171 90.718 93.0531 89.53 94.6191 89.53C96.1311 89.53 97.1571 90.772 97.1571 92.194V92.23C97.1571 93.67 96.2211 94.858 94.6551 94.858ZM93.3591 100.582H95.9331V98.206H93.3591V100.582ZM106.392 97.216C108.318 97.216 109.398 96.478 110.334 95.452L108.732 93.832C108.066 94.462 107.436 94.858 106.518 94.858C105.024 94.858 104.07 93.688 104.07 92.194V92.158C104.07 90.718 105.042 89.53 106.41 89.53C107.4 89.53 107.976 89.944 108.606 90.592L110.28 88.792C109.362 87.784 108.246 87.172 106.428 87.172C103.476 87.172 101.37 89.44 101.37 92.194V92.23C101.37 94.966 103.494 97.216 106.392 97.216Z" fill="black"/>
</svg>
