<svg width="76" height="72" viewBox="0 0 76 72" fill="none" xmlns="http://www.w3.org/2000/svg">
<circle cx="38" cy="26" r="18" fill="white"/>
<path d="M38.0001 8.78261C34.5948 8.78261 31.266 9.79239 28.4346 11.6843C25.6033 13.5761 23.3965 16.2651 22.0933 19.4112C20.7902 22.5573 20.4492 26.0191 21.1135 29.3589C21.7779 32.6988 23.4177 35.7666 25.8256 38.1745C28.2335 40.5824 31.3013 42.2222 34.6412 42.8866C37.981 43.5509 41.4429 43.2099 44.5889 41.9068C47.735 40.6036 50.424 38.3968 52.3158 35.5655C54.2077 32.7341 55.2175 29.4053 55.2175 26C55.2122 21.4353 53.3966 17.059 50.1688 13.8313C46.9411 10.6035 42.5648 8.78787 38.0001 8.78261ZM43.96 20.7023C44.3529 20.7023 44.737 20.8189 45.0637 21.0371C45.3904 21.2554 45.645 21.5657 45.7954 21.9287C45.9457 22.2917 45.9851 22.6912 45.9084 23.0765C45.8318 23.4619 45.6426 23.8159 45.3647 24.0937C45.0869 24.3715 44.7329 24.5608 44.3475 24.6374C43.9622 24.7141 43.5627 24.6747 43.1997 24.5244C42.8367 24.374 42.5265 24.1194 42.3082 23.7927C42.0899 23.466 41.9734 23.0819 41.9734 22.689C41.9734 22.1621 42.1827 21.6568 42.5552 21.2842C42.9278 20.9116 43.4331 20.7023 43.96 20.7023ZM32.0402 20.7023C32.4332 20.7023 32.8173 20.8189 33.144 21.0371C33.4707 21.2554 33.7253 21.5657 33.8756 21.9287C34.026 22.2917 34.0653 22.6912 33.9887 23.0765C33.912 23.4619 33.7228 23.8159 33.445 24.0937C33.1672 24.3715 32.8132 24.5608 32.4278 24.6374C32.0424 24.7141 31.643 24.6747 31.28 24.5244C30.917 24.374 30.6067 24.1194 30.3884 23.7927C30.1701 23.466 30.0536 23.0819 30.0536 22.689C30.0536 22.1621 30.2629 21.6568 30.6355 21.2842C31.0081 20.9116 31.5134 20.7023 32.0402 20.7023ZM45.5468 35.0929C45.3963 35.1801 45.23 35.2367 45.0576 35.2596C44.8852 35.2825 44.7099 35.2711 44.5419 35.2262C44.3738 35.1813 44.2163 35.1038 44.0782 34.9979C43.9402 34.8921 43.8243 34.7601 43.7373 34.6095C43.1559 33.6024 42.3196 32.7661 41.3125 32.1847C40.3054 31.6032 39.163 31.2971 38.0001 31.2971C36.8372 31.2971 35.6948 31.6032 34.6877 32.1847C33.6806 32.7661 32.8444 33.6024 32.2629 34.6095C32.0855 34.9105 31.7964 35.1292 31.4585 35.218C31.1206 35.3067 30.7613 35.2584 30.4589 35.0835C30.1564 34.9086 29.9354 34.6213 29.8438 34.2841C29.7523 33.947 29.7976 33.5873 29.97 33.2834C30.7841 31.8742 31.9547 30.704 33.3642 29.8904C34.7738 29.0768 36.3726 28.6485 38.0001 28.6485C39.6276 28.6485 41.2264 29.0768 42.636 29.8904C44.0455 30.704 45.2161 31.8742 46.0302 33.2834C46.206 33.5875 46.2539 33.949 46.1632 34.2883C46.0726 34.6276 45.8508 34.9171 45.5468 35.0929Z" fill="#E23F30"/>
<path d="M2.07636 64H3.92436V61.432L4.89636 60.424L7.50036 64H9.72036L6.14436 59.164L9.56436 55.6H7.33236L3.92436 59.272V55.6H2.07636V64ZM10.65 64H12.474V60.412C12.474 59.548 12.906 59.104 13.614 59.104C14.322 59.104 14.718 59.548 14.718 60.412V64H16.542V59.836C16.542 58.348 15.75 57.448 14.358 57.448C13.446 57.448 12.894 57.94 12.474 58.48V55.24H10.65V64ZM21.2825 64.144C23.2865 64.144 24.7745 62.644 24.7745 60.796V60.772C24.7745 58.912 23.2865 57.448 21.3065 57.448C19.3025 57.448 17.8145 58.948 17.8145 60.796V60.82C17.8145 62.68 19.3025 64.144 21.2825 64.144ZM21.3065 62.572C20.2985 62.572 19.6145 61.744 19.6145 60.796V60.772C19.6145 59.812 20.2385 59.02 21.2825 59.02C22.2905 59.02 22.9745 59.848 22.9745 60.796V60.82C22.9745 61.78 22.3505 62.572 21.3065 62.572ZM18.9545 56.86H20.3345L21.2825 56.068L22.2305 56.86H23.6345L22.1585 54.976H20.4305L18.9545 56.86ZM26.0953 64H27.9193V60.412C27.9193 59.548 28.3513 59.104 29.0593 59.104C29.7673 59.104 30.1633 59.548 30.1633 60.412V64H31.9873V59.836C31.9873 58.348 31.1953 57.448 29.8033 57.448C28.8913 57.448 28.3393 57.94 27.9193 58.48V57.568H26.0953V64ZM36.4519 65.944C37.6999 65.944 38.6119 65.692 39.2239 65.08C39.7639 64.54 40.0399 63.688 40.0399 62.548V57.568H38.2159V58.408C37.7239 57.868 37.1359 57.448 36.1399 57.448C34.6639 57.448 33.2839 58.528 33.2839 60.448V60.472C33.2839 62.392 34.6399 63.472 36.1399 63.472C37.1119 63.472 37.6999 63.088 38.2399 62.428V62.74C38.2399 63.892 37.6519 64.492 36.4039 64.492C35.5399 64.492 34.9039 64.276 34.2319 63.904L33.6079 65.272C34.4239 65.704 35.3959 65.944 36.4519 65.944ZM36.6679 61.96C35.7679 61.96 35.1079 61.372 35.1079 60.472V60.448C35.1079 59.572 35.7799 58.96 36.6679 58.96C37.5679 58.96 38.2399 59.572 38.2399 60.448V60.472C38.2399 61.348 37.5679 61.96 36.6679 61.96ZM48.0512 56.884H49.9112V58.408C49.4792 57.892 48.8792 57.448 47.9072 57.448C46.3832 57.448 44.9792 58.624 44.9792 60.772V60.796C44.9792 62.944 46.4072 64.12 47.9072 64.12C48.8672 64.12 49.4672 63.688 49.9112 63.076V64H51.7352V56.884H52.5512V55.864H51.7352V55.24H49.9112V55.864H48.0512V56.884ZM48.3752 62.572C47.5232 62.572 46.8032 61.864 46.8032 60.796V60.772C46.8032 59.692 47.5232 58.996 48.3752 58.996C49.2272 58.996 49.9352 59.704 49.9352 60.772V60.796C49.9352 61.864 49.2272 62.572 48.3752 62.572ZM55.5008 64.12C56.4128 64.12 56.9648 63.628 57.3848 63.088V64H59.2088V59.044C60.0248 58.768 60.4568 58.264 60.5168 57.556C60.5168 57.328 60.4688 56.716 60.2648 56.128H58.4768C58.8488 56.8 58.8968 57.136 58.8968 57.316C58.8968 57.448 58.8128 57.532 58.6568 57.568H57.3848V61.156C57.3848 62.02 56.9528 62.464 56.2448 62.464C55.5368 62.464 55.1408 62.02 55.1408 61.156V57.568H53.3168V61.732C53.3168 63.22 54.1088 64.12 55.5008 64.12ZM64.0794 64.144C66.0834 64.144 67.5714 62.644 67.5714 60.796V60.772C67.5714 60.136 67.4034 59.548 67.0674 59.032C67.5594 58.744 67.8234 58.324 67.8594 57.772C67.8594 57.544 67.8114 56.932 67.6074 56.344H65.8194C66.1914 57.016 66.2394 57.352 66.2394 57.532C66.2394 57.712 66.1314 57.796 65.7594 57.832C65.2674 57.592 64.7154 57.448 64.1034 57.448C62.0994 57.448 60.6114 58.948 60.6114 60.796V60.82C60.6114 62.68 62.0994 64.144 64.0794 64.144ZM64.1034 62.572C63.0954 62.572 62.4114 61.744 62.4114 60.796V60.772C62.4114 59.812 63.0354 59.02 64.0794 59.02C65.0874 59.02 65.7714 59.848 65.7714 60.796V60.82C65.7714 61.78 65.1474 62.572 64.1034 62.572ZM63.2394 66.388H64.9554V64.804H63.2394V66.388ZM71.9282 64.144C73.2122 64.144 73.9322 63.652 74.5562 62.968L73.4882 61.888C73.0442 62.308 72.6242 62.572 72.0122 62.572C71.0162 62.572 70.3802 61.792 70.3802 60.796V60.772C70.3802 59.812 71.0282 59.02 71.9402 59.02C72.6002 59.02 72.9842 59.296 73.4042 59.728L74.5202 58.528C73.9082 57.856 73.1642 57.448 71.9522 57.448C69.9842 57.448 68.5802 58.96 68.5802 60.796V60.82C68.5802 62.644 69.9962 64.144 71.9282 64.144Z" fill="white"/>
</svg>
