<svg width="532" height="142" viewBox="0 0 532 142" fill="none" xmlns="http://www.w3.org/2000/svg">
<path d="M240.598 138.018H242.598V136.018V17.4096C242.598 9.99037 236.55 4 229.117 4C221.685 4 215.629 9.98887 215.629 17.4096V119.971C215.629 125.045 217.894 129.641 222.23 132.913C226.524 136.153 232.733 138.018 240.598 138.018Z" fill="#ED2027" stroke="white" stroke-width="4"/>
<path d="M516.802 54.0787C517.355 54.0787 517.802 53.631 517.802 53.0787V47.5051H519.309C519.862 47.5051 520.309 47.0574 520.309 46.5051V45.2234C520.309 44.6712 519.862 44.2234 519.309 44.2234H512.896C512.343 44.2234 511.896 44.6712 511.896 45.2234V46.5051C511.896 47.0574 512.343 47.5051 512.896 47.5051H514.403V53.0787C514.403 53.631 514.85 54.0787 515.403 54.0787H516.802Z" fill="#ED2027" stroke="white" stroke-width="2" stroke-linejoin="round"/>
<path d="M525.113 52.1496C525.445 52.1496 525.756 51.9847 525.942 51.7096L526.614 50.7152V53.0787C526.614 53.631 527.061 54.0787 527.614 54.0787H529C529.552 54.0787 530 53.631 530 53.0787V45.2234C530 44.6712 529.552 44.2234 529 44.2234H527.521C527.182 44.2234 526.866 44.3951 526.682 44.6794L525.113 47.0984L523.544 44.6794C523.36 44.3951 523.044 44.2234 522.705 44.2234H521.226C520.674 44.2234 520.226 44.6712 520.226 45.2234V53.0787C520.226 53.631 520.674 54.0787 521.226 54.0787H522.593C523.145 54.0787 523.593 53.631 523.593 53.0787V50.7494L524.237 51.7075C524.423 51.9838 524.734 52.1496 525.067 52.1496H525.113Z" fill="#ED2027" stroke="white" stroke-width="2" stroke-linejoin="round"/>
<path d="M425.893 138.018H427.893V136.018V84.546V84.5455C427.889 70.5232 423.272 60.0721 415.587 53.1449C407.937 46.2488 397.478 43.0519 386.143 43.0451C374.801 43.0382 364.331 46.2353 356.674 53.1346C348.982 60.065 344.359 70.5229 344.359 84.546V124.608C344.359 132.028 350.407 138.018 357.847 138.018C365.279 138.018 371.335 132.029 371.335 124.608V81.8174C371.335 73.7184 377.942 67.1358 386.129 67.1358C394.31 67.1358 400.923 73.7189 400.923 81.8174V119.971C400.923 125.045 403.188 129.641 407.525 132.913C411.819 136.153 418.027 138.018 425.893 138.018Z" fill="#ED2027" stroke="white" stroke-width="4"/>
<path d="M202.002 138.018H204.002V136.018V84.546V84.5455C203.998 70.5232 199.381 60.0721 191.696 53.1449C184.046 46.2488 173.587 43.0519 162.252 43.0451C150.91 43.0382 140.44 46.2353 132.783 53.1346C125.09 60.065 120.467 70.5229 120.467 84.546V124.608C120.467 132.028 126.516 138.018 133.955 138.018C141.387 138.018 147.444 132.029 147.444 124.608V81.8174C147.444 73.7189 154.057 67.1358 162.238 67.1358C170.419 67.1358 177.032 73.7189 177.032 81.8174V119.971C177.032 125.045 179.297 129.641 183.634 132.913C187.928 136.153 194.136 138.018 202.002 138.018Z" fill="#ED2027" stroke="white" stroke-width="4"/>
<path d="M296.315 140C310.745 139.993 323.931 135.598 333.008 126.128L333.028 126.108L333.065 126.072L333.143 125.993L333.144 125.993C333.146 125.991 333.149 125.988 333.151 125.986L334.572 124.57L334.416 124.413C338.096 119.019 336.99 111.639 331.746 107.569L331.745 107.568C327.394 104.195 321.52 104.122 317.15 106.971L317.041 106.863L315.635 108.121C313.1 110.39 310.88 112.022 308.052 113.122C305.212 114.227 301.608 114.852 296.254 114.852C288.643 114.852 280.942 109.62 277.778 102.256H327.753H327.756C333.706 102.248 338.548 97.4647 338.548 91.5225C338.548 58.3389 312.948 43.045 294.151 43.045C275.358 43.045 249.708 58.3364 249.708 91.5225C249.708 107.945 255.172 120.131 263.863 128.198C272.524 136.238 284.196 140.007 296.315 140ZM296.315 140L296.314 138L296.315 140ZM333.064 126.068L333.067 126.066C333.064 126.069 333.062 126.07 333.064 126.068ZM294.125 67.1291C301.647 67.1291 308.22 72.3265 310.804 79.8571H277.446C280.032 72.331 286.61 67.1291 294.125 67.1291Z" fill="#ED2027" stroke="white" stroke-width="4"/>
<path d="M478.525 140C492.964 139.993 506.157 135.592 515.236 126.11L515.237 126.109C515.248 126.098 515.261 126.086 515.275 126.072L515.354 125.993L515.354 125.993C515.357 125.991 515.359 125.988 515.362 125.986L516.785 124.567L516.628 124.411C520.306 119.016 519.199 111.639 513.956 107.569L513.955 107.568C509.604 104.195 503.73 104.122 499.36 106.971L499.251 106.863L497.845 108.121C495.31 110.39 493.091 112.022 490.263 113.122C487.422 114.227 483.818 114.852 478.465 114.852C470.853 114.852 463.153 109.62 459.989 102.256H509.964H509.966C515.916 102.248 520.759 97.4647 520.759 91.5225C520.759 58.3389 495.158 43.045 476.362 43.045C457.568 43.045 431.918 58.3364 431.918 91.5225C431.918 107.945 437.383 120.131 446.073 128.198C454.735 136.238 466.406 140.007 478.525 140ZM478.525 140L478.524 138L478.525 140ZM515.182 126.16L515.187 126.156C515.183 126.159 515.181 126.161 515.181 126.161L515.182 126.16ZM476.342 67.1291C483.864 67.1291 490.437 72.3265 493.022 79.8571H459.663C462.248 72.3307 468.821 67.1291 476.342 67.1291Z" fill="#ED2027" stroke="white" stroke-width="4"/>
<path d="M74.0266 26.128L74.0264 26.1277C68.5287 13.6912 50.7803 13.6912 45.2826 26.1277L45.2825 26.128L4.13906 119.235L4.13886 119.235C1.14102 126.024 4.25318 133.937 11.0731 136.907C15.686 138.921 20.8042 138.145 24.5605 135.364L24.5632 135.367L24.6959 135.268L24.8098 135.183L24.8282 135.165L72.974 98.0415L72.9823 98.0351L73.1349 97.9162L73.1607 97.896L73.1858 97.8751C73.3418 97.7451 73.6111 97.5001 73.8357 97.1486C74.0531 96.8081 74.3877 96.1071 74.1653 95.2328C73.939 94.3436 73.2841 93.8472 72.8021 93.5972C72.3229 93.3486 71.7655 93.205 71.1935 93.1119C61.4764 91.3738 51.6918 93.0897 44.1672 95.3174L59.6543 60.2733L86.3861 120.779L86.3861 120.779C91.8882 133.229 104.721 140.301 120.664 137.944L123.262 137.56L122.201 135.157L74.0266 26.128Z" fill="#ED2027" stroke="white" stroke-width="4"/>
</svg>
