<svg width="111" height="111" viewBox="0 0 111 111" fill="none" xmlns="http://www.w3.org/2000/svg">
<circle cx="55" cy="45" r="27" fill="white"/>
<path d="M54.9999 18.9C49.8378 18.9 44.7916 20.4308 40.4995 23.2987C36.2074 26.1666 32.8621 30.2428 30.8867 35.012C28.9112 39.7811 28.3943 45.029 29.4014 50.0919C30.4085 55.1548 32.8943 59.8054 36.5444 63.4555C40.1946 67.1057 44.8451 69.5914 49.9081 70.5985C54.971 71.6056 60.2188 71.0887 64.9879 69.1133C69.7571 67.1378 73.8334 63.7925 76.7013 59.5004C79.5692 55.2083 81.0999 50.1621 81.0999 45C81.0919 38.0803 78.3396 31.4463 73.4466 26.5533C68.5536 21.6604 61.9196 18.908 54.9999 18.9ZM64.0345 36.9693C64.6301 36.9693 65.2124 37.1459 65.7076 37.4768C66.2029 37.8077 66.5889 38.278 66.8168 38.8283C67.0448 39.3786 67.1044 39.9841 66.9882 40.5683C66.872 41.1525 66.5852 41.6891 66.164 42.1103C65.7428 42.5314 65.2062 42.8183 64.622 42.9345C64.0379 43.0507 63.4323 42.991 62.8821 42.7631C62.3318 42.5352 61.8614 42.1492 61.5305 41.6539C61.1996 41.1587 61.023 40.5764 61.023 39.9808C61.023 39.1821 61.3403 38.4161 61.905 37.8513C62.4698 37.2865 63.2358 36.9693 64.0345 36.9693ZM45.9653 36.9693C46.5609 36.9693 47.1432 37.1459 47.6384 37.4768C48.1337 37.8077 48.5197 38.278 48.7476 38.8283C48.9755 39.3786 49.0352 39.9841 48.919 40.5683C48.8028 41.1525 48.5159 41.6891 48.0948 42.1103C47.6736 42.5314 47.137 42.8183 46.5528 42.9345C45.9686 43.0507 45.3631 42.991 44.8128 42.7631C44.2625 42.5352 43.7922 42.1492 43.4613 41.6539C43.1304 41.1587 42.9538 40.5764 42.9538 39.9808C42.9538 39.1821 43.271 38.4161 43.8358 37.8513C44.4006 37.2865 45.1666 36.9693 45.9653 36.9693ZM66.44 58.7841C66.2118 58.9162 65.9598 59.002 65.6984 59.0367C65.437 59.0714 65.1714 59.0542 64.9166 58.9861C64.6619 58.9181 64.423 58.8005 64.2138 58.6401C64.0045 58.4797 63.8289 58.2796 63.697 58.0513C62.8156 56.5246 61.5478 55.2569 60.0212 54.3754C58.4945 53.494 56.7627 53.03 54.9999 53.03C53.2371 53.03 51.5053 53.494 49.9786 54.3754C48.452 55.2569 47.1842 56.5246 46.3028 58.0513C46.0339 58.5075 45.5956 58.839 45.0834 58.9736C44.5712 59.1082 44.0265 59.035 43.5681 58.7698C43.1096 58.5047 42.7745 58.0691 42.6357 57.558C42.4969 57.0469 42.5657 56.5017 42.827 56.0411C44.0611 53.9047 45.8356 52.1308 47.9723 50.8975C50.1091 49.6641 52.5328 49.0149 54.9999 49.0149C57.467 49.0149 59.8907 49.6641 62.0275 50.8975C64.1642 52.1308 65.9388 53.9047 67.1728 56.0411C67.4393 56.502 67.5119 57.0499 67.3745 57.5643C67.237 58.0787 66.9009 58.5175 66.44 58.7841Z" fill="#E23F30"/>
<path d="M13.6038 97H16.3398V88.99L22.4418 97H24.7998V84.4H22.0638V92.158L16.1598 84.4H13.6038V97ZM27.5365 97H30.2725V91.618C30.2725 90.322 30.9205 89.656 31.9825 89.656C33.0445 89.656 33.6385 90.322 33.6385 91.618V97H36.3745V90.754C36.3745 88.522 35.1865 87.172 33.0985 87.172C31.7305 87.172 30.9025 87.91 30.2725 88.72V83.86H27.5365V97ZM38.8053 86.29H41.6853V83.86H38.8053V86.29ZM38.8773 97H41.6133V87.352H38.8773V97ZM48.755 97.216C50.501 97.216 51.779 96.55 52.697 95.416L51.131 94.03C50.357 94.732 49.709 95.02 48.791 95.02C47.567 95.02 46.703 94.372 46.433 93.13H53.147C53.165 92.86 53.183 92.626 53.183 92.41C53.183 89.674 51.707 87.172 48.485 87.172C45.677 87.172 43.715 89.44 43.715 92.194V92.23C43.715 95.182 45.857 97.216 48.755 97.216ZM46.397 91.42C46.613 90.178 47.333 89.368 48.485 89.368C49.637 89.368 50.357 90.196 50.519 91.42H46.397ZM44.939 86.29H47.009L48.431 85.102L49.853 86.29H51.959L49.745 83.464H47.153L44.939 86.29ZM51.509 84.13H53.525L51.527 80.944L49.169 81.97L51.509 84.13ZM58.426 97.18C59.794 97.18 60.622 96.442 61.252 95.632V97H63.988V87.352H61.252V92.734C61.252 94.03 60.604 94.696 59.542 94.696C58.48 94.696 57.886 94.03 57.886 92.734V87.352H55.15V93.598C55.15 95.83 56.338 97.18 58.426 97.18ZM71.9594 97H74.6954V83.86H71.9594V97ZM80.001 97.18C81.351 97.18 82.251 96.694 82.917 95.956V97H85.563V91.402C85.563 90.106 85.239 89.044 84.519 88.324C83.817 87.622 82.773 87.244 81.261 87.244C79.623 87.244 78.579 87.568 77.517 88.018L78.201 90.106C79.083 89.764 79.803 89.584 80.865 89.584C82.233 89.584 82.935 90.196 82.935 91.348V91.51C82.233 91.276 81.567 91.114 80.577 91.114C78.291 91.114 76.689 92.104 76.689 94.192V94.228C76.689 96.154 78.183 97.18 80.001 97.18ZM80.829 95.29C79.947 95.29 79.335 94.858 79.335 94.12V94.084C79.335 93.22 80.055 92.752 81.225 92.752C81.891 92.752 82.485 92.896 82.971 93.112V93.598C82.971 94.606 82.125 95.29 80.829 95.29ZM78.075 86.29H80.145L81.567 85.102L82.989 86.29H85.095L82.881 83.464H80.289L78.075 86.29ZM84.645 84.13H86.661L84.663 80.944L82.305 81.97L84.645 84.13ZM87.9174 97H90.6534V91.618C90.6534 90.322 91.3014 89.656 92.3634 89.656C93.4254 89.656 94.0194 90.322 94.0194 91.618V97H96.7554V90.754C96.7554 88.522 95.5674 87.172 93.4794 87.172C92.1114 87.172 91.2834 87.91 90.6534 88.72V87.352H87.9174V97Z" fill="black"/>
</svg>
